<svg width="24" height="23" viewBox="0 0 24 23" fill="none" xmlns="http://www.w3.org/2000/svg">
<path d="M3.21967 4.10198C2.92678 3.82129 2.92678 3.36621 3.21967 3.08552C3.51256 2.80483 3.98744 2.80483 4.28033 3.08552L12 10.4835L19.7197 3.08552C20.0126 2.80483 20.4874 2.80483 20.7803 3.08552C21.0732 3.36621 21.0732 3.82129 20.7803 4.10198L13.0607 11.5L20.7803 18.898C21.0732 19.1787 21.0732 19.6338 20.7803 19.9145C20.4874 20.1952 20.0126 20.1952 19.7197 19.9145L12 12.5165L4.28033 19.9145C3.98744 20.1952 3.51256 20.1952 3.21967 19.9145C2.92678 19.6338 2.92678 19.1787 3.21967 18.898L10.9393 11.5L3.21967 4.10198Z" fill="#DC3545"/>
</svg>
