<svg width="43" height="44" viewBox="0 0 43 44" fill="none" xmlns="http://www.w3.org/2000/svg">
<g clip-path="url(#clip0_2_21)">
<path d="M16.1291 15.2812C16.1291 17.5077 14.3242 19.3125 12.0978 19.3125C9.87143 19.3125 8.06659 17.5077 8.06659 15.2812C8.06659 13.0548 9.87143 11.25 12.0978 11.25C14.3242 11.25 16.1291 13.0548 16.1291 15.2812Z" fill="#F0F0F0"/>
<path d="M5.3791 3.1875C2.41056 3.1875 0.00408936 5.59397 0.00408936 8.5625V35.4375C0.00408936 38.4061 2.41056 40.8125 5.3791 40.8125H37.629C40.5976 40.8125 43.004 38.4061 43.004 35.4375V8.5625C43.004 5.59397 40.5976 3.1875 37.629 3.1875H5.3791ZM37.629 5.875C39.1133 5.875 40.3165 7.07825 40.3165 8.5625V26.0313L30.1674 20.7982C29.6501 20.5395 29.0255 20.6409 28.6165 21.0499L18.6454 31.0209L11.4995 26.257C10.9665 25.9017 10.2568 25.9719 9.80391 26.4249L2.6916 32.75V8.5625C2.6916 7.07825 3.89482 5.875 5.3791 5.875H37.629Z" fill="#F0F0F0"/>
</g>
<defs>
<clipPath id="clip0_2_21">
<rect width="43" height="43" fill="white" transform="translate(0 0.5)"/>
</clipPath>
</defs>
</svg>
