<svg width="24" height="23" viewBox="0 0 24 23" fill="none" xmlns="http://www.w3.org/2000/svg">
<path fill-rule="evenodd" clip-rule="evenodd" d="M6.45291 7.84584C6.16876 7.84584 5.93946 7.60878 5.97536 7.32691C6.3011 4.76972 8.25997 2.875 11.736 2.875C15.111 2.875 17.3866 4.83094 17.3866 7.49701C17.3866 9.42804 16.3894 10.786 14.7019 11.7702C13.0528 12.717 12.5798 13.3773 12.5798 14.6605V14.9205C12.5798 15.1966 12.3559 15.4205 12.0798 15.4205H10.4271C10.1535 15.4205 9.93066 15.2005 9.92715 14.9269L9.9207 14.4238C9.85678 12.6672 10.6366 11.5459 12.388 10.5244C13.9349 9.61491 14.4846 8.89233 14.4846 7.60913C14.4846 6.20135 13.3468 5.16732 11.5954 5.16732C10.0027 5.16732 8.92056 6.01008 8.64056 7.38394C8.58811 7.64125 8.37473 7.84584 8.11213 7.84584H6.45291ZM11.244 20.125C12.1773 20.125 12.8866 19.4442 12.8866 18.5568C12.8866 17.6694 12.1773 16.9886 11.244 16.9886C10.3356 16.9886 9.61388 17.6694 9.61388 18.5568C9.61388 19.4442 10.3356 20.125 11.244 20.125Z" fill="#6C757D"/>
</svg>
